<?xml version="1.0" standalone="no"?>
<!DOCTYPE svg PUBLIC "-//W3C//DTD SVG 20010904//EN"
 "http://www.w3.org/TR/2001/REC-SVG-20010904/DTD/svg10.dtd">
<svg version="1.0" xmlns="http://www.w3.org/2000/svg"
 width="512.000000pt" height="320.000000pt" viewBox="0 0 512.000000 320.000000"
 preserveAspectRatio="xMidYMid meet">

<g transform="translate(0.000000,320.000000) scale(0.100000,-0.100000)"
fill="#000000" stroke="none">
<path d="M1048 1607 c-109 -260 -198 -476 -198 -480 0 -4 98 -7 219 -7 l219 0
33 90 33 90 82 0 81 0 32 -90 33 -90 269 0 269 0 1 33 1 32 14 -32 14 -32 659
-1 658 0 77 85 78 85 71 -84 72 -85 254 0 253 -1 -34 42 c-19 24 -106 132
-192 241 -141 178 -156 200 -144 215 66 77 358 442 358 446 0 3 -112 6 -249 6
l-249 0 -63 -72 c-34 -40 -65 -74 -68 -75 -3 -2 -33 31 -66 72 l-60 75 -536 0
-535 0 -60 -136 c-33 -75 -64 -136 -69 -136 -5 0 -36 61 -69 136 l-60 136
-232 0 -233 0 -3 -87 -3 -88 -23 48 c-12 26 -31 67 -41 92 l-20 45 -188 0
-188 0 -197 -473z m633 32 l134 -320 5 318 5 318 136 3 135 3 105 -235 105
-234 103 234 104 234 138 0 139 0 0 -360 0 -360 -100 0 -100 0 0 253 -1 252
-102 -252 -102 -253 -80 0 -80 0 -110 257 -110 256 -3 -256 -2 -257 -169 0
-169 0 -33 90 -32 90 -161 0 -162 0 -33 -90 -33 -90 -89 0 c-59 0 -89 4 -89
11 0 9 243 599 282 684 11 24 14 25 123 25 l111 0 135 -321z m1785 289 c17
-18 59 -68 93 -111 35 -43 67 -77 71 -75 4 2 49 51 99 111 l93 107 92 0 c51 0
95 -3 99 -6 3 -3 -40 -62 -96 -131 -56 -68 -119 -147 -141 -174 l-38 -49 134
-167 c74 -93 137 -174 142 -180 5 -10 -15 -13 -93 -13 l-99 0 -97 110 c-53 61
-100 110 -104 110 -5 0 -52 -49 -105 -110 l-97 -110 -259 0 -260 0 0 353 c0
195 3 357 7 360 3 4 124 7 268 7 l261 0 30 -32z"/>
<path d="M1381 1685 c-24 -58 -42 -108 -39 -111 3 -2 46 -3 96 -2 l90 3 -46
108 c-26 59 -49 107 -52 107 -3 0 -25 -47 -49 -105z"/>
<path d="M3080 1735 l0 -75 120 0 121 0 -3 -62 -3 -63 -117 -3 -118 -3 0 -69
0 -70 124 0 124 0 92 106 92 105 -28 37 c-16 20 -52 67 -81 105 l-54 67 -134
0 -135 0 0 -75z"/>
</g>
</svg>
