<?xml version="1.0" encoding="utf-8"?>
<!-- Generator: Adobe Illustrator 25.2.0, SVG Export Plug-In . SVG Version: 6.00 Build 0)  -->
<svg version="1.1" id="katman_1" xmlns="http://www.w3.org/2000/svg" xmlns:xlink="http://www.w3.org/1999/xlink" x="0px" y="0px"
	 viewBox="0 0 841.89 595.28" style="enable-background:new 0 0 841.89 595.28;" xml:space="preserve">
<style type="text/css">
	.st0{fill:#010202;}
</style>
<path class="st0" d="M541.37,245.27c-12.09,0-21.41,4.31-30.06,13.3v-11.2h-23.74v110.25h25.55v-63.94c0-14.64,8.72-23.9,21.94-23.9
	c2.4,0,4.51,0.3,6.01,0.59l17.73-23.3C551.89,245.86,545.88,245.27,541.37,245.27L541.37,245.27z M761.67,247.36h-29.46l-27.2,35.96
	l-27.2-35.96h-29.46l41.56,55.56l-41.56,54.7h30.05l26.45-34.88l26.45,34.88h30.36L719.84,303L761.67,247.36L761.67,247.36z
	 M225.2,222.56c-8.72,11.65-10.82,15.53-19.24,15.53H80.33v149.39h49.29c11.12,0,21.94-5.38,28.85-14.34
	c9.02-11.95,10.22-15.53,18.93-15.53h125.93V208.22h-49.59C242.62,208.22,231.81,213.6,225.2,222.56L225.2,222.56z M264.26,319.07
	h-52.6c-11.42,0-21.94,4.78-28.85,14.04c-9.02,11.95-10.82,15.54-19.24,15.54H119.1v-71.71h52.6c11.42,0,21.94-5.38,28.85-14.34
	c9.02-11.65,11.42-15.24,19.53-15.24h44.18V319.07z M453.01,282.32c11.13-6.27,18.93-17.33,18.93-31.97
	c0-21.51-16.53-42.13-40.57-42.13h-72.13v149.39h72.13c26.14,0,44.18-18.53,44.18-41.83C475.55,302.04,469.24,290.08,453.01,282.32z
	 M384.79,231.52h44.48c11.12,0,17.73,10.46,17.73,19.72c0,11.36-9.92,19.12-19.23,19.12h-42.98
	C384.79,270.36,384.79,231.52,384.79,231.52z M427.76,334.3h-42.98v-40.64h44.48c11.42,0,20.74,9.86,20.74,20.02
	C450,325.04,438.29,334.3,427.76,334.3z"/>
<path class="st0" d="M622.82,325.93c-4.21,6.58-12.32,10.46-21.34,10.46c-14.12,0-25.84-9.56-25.84-24.2h76.34
	c1.2-4.48,1.5-6.57,1.5-10.46c0-33.46-20.74-56.47-51.99-56.47c-30.66,0-52.29,21.81-52.29,57.36c0,34.66,20.73,57.07,52.89,57.07
	c22.54,0,42.38-11.05,48.09-33.76C650.17,325.93,622.82,325.93,622.82,325.93z M601.48,268.57c14.13,0,24.95,8.96,24.65,22.41
	h-50.19C575.93,277.84,587.36,268.57,601.48,268.57z"/>
</svg>
